<svg width="9" height="11" viewBox="0 0 9 11" fill="none" xmlns="http://www.w3.org/2000/svg">
<path d="M8.19518 1.166C7.38318 0.647999 6.55718 0.494 5.70318 0.494C4.41518 0.494 3.29518 0.802 2.32918 1.712C1.54518 2.454 0.83118 3.644 0.83118 5.366C0.83118 6.682 1.23718 7.872 2.32918 8.894C2.87518 9.412 3.93918 10.182 5.63318 10.182C6.27718 10.182 7.25718 10.042 8.19518 9.482V7.788C7.66318 8.292 6.79518 8.866 5.67518 8.866C3.68718 8.866 2.25918 7.34 2.25918 5.366C2.25918 3.308 3.63118 1.81 5.66118 1.81C6.19318 1.81 7.15918 1.908 8.19518 2.846V1.166Z" fill="white"/>
</svg>
